<svg width="32" height="32" viewBox="0 0 32 32" fill="none" xmlns="http://www.w3.org/2000/svg">
<path d="M17.1429 16.6383V25.5993C17.1429 25.9388 17.0224 26.2644 16.8081 26.5045C16.5938 26.7446 16.3031 26.8794 16 26.8794C15.6969 26.8794 15.4062 26.7446 15.1919 26.5045C14.9776 26.2644 14.8571 25.9388 14.8571 25.5993V16.6383C14.8571 16.2988 14.9776 15.9732 15.1919 15.7332C15.4062 15.4931 15.6969 15.3582 16 15.3582C16.3031 15.3582 16.5938 15.4931 16.8081 15.7332C17.0224 15.9732 17.1429 16.2988 17.1429 16.6383ZM22.4057 16.5103L21.6057 25.4713C21.5899 25.6391 21.6038 25.8087 21.6467 25.9704C21.6897 26.1321 21.7607 26.2827 21.8557 26.4136C21.9508 26.5444 22.068 26.653 22.2006 26.7329C22.3333 26.8129 22.4787 26.8627 22.6285 26.8794C22.6671 26.882 22.7057 26.882 22.7443 26.8794C23.0273 26.8791 23.3002 26.761 23.51 26.5482C23.7198 26.3353 23.8517 26.0428 23.88 25.7273L24.68 16.7664C24.7103 16.4285 24.6195 16.0911 24.4277 15.8282C24.2359 15.5653 23.9587 15.3986 23.6571 15.3646C23.3555 15.3307 23.0542 15.4323 22.8196 15.6472C22.5849 15.862 22.436 16.1725 22.4057 16.5103ZM9.59432 16.5103C9.56401 16.1725 9.41513 15.862 9.18044 15.6472C8.94576 15.4323 8.64448 15.3307 8.34289 15.3646C8.04131 15.3986 7.76411 15.5653 7.57229 15.8282C7.38047 16.0911 7.28973 16.4285 7.32004 16.7664L8.12004 25.7273C8.14847 26.0442 8.28131 26.3378 8.49263 26.5508C8.70396 26.7639 8.97859 26.881 9.26289 26.8794C9.30143 26.882 9.34006 26.882 9.3786 26.8794C9.52794 26.8626 9.67285 26.8131 9.80507 26.7335C9.93729 26.654 10.0542 26.546 10.1492 26.4159C10.2442 26.2857 10.3154 26.1359 10.3586 25.9749C10.4019 25.8139 10.4165 25.645 10.4015 25.4777L9.59432 16.5103ZM31.9899 11.6874L29.8371 29.779C29.762 30.393 29.4913 30.9559 29.075 31.364C28.6586 31.7722 28.1246 31.998 27.5714 32H4.42863C3.87536 31.998 3.34137 31.7722 2.92502 31.364C2.50867 30.9559 2.23802 30.393 2.16292 29.779L0.0100766 11.6874C-0.0115047 11.5066 0.00167161 11.3227 0.0487223 11.148C0.095773 10.9733 0.175611 10.812 0.282886 10.6747C0.390161 10.5374 0.522394 10.4274 0.670723 10.352C0.819052 10.2766 0.980051 10.2376 1.14293 10.2377H7.48147L15.1429 0.433406C15.2501 0.297191 15.382 0.188097 15.5298 0.113372C15.6776 0.0386461 15.8379 0 16 0C16.1621 0 16.3224 0.0386461 16.4702 0.113372C16.618 0.188097 16.7499 0.297191 16.8571 0.433406L24.5185 10.2377H30.8571C31.02 10.2376 31.1809 10.2766 31.3293 10.352C31.4776 10.4274 31.6098 10.5374 31.7171 10.6747C31.8244 10.812 31.9042 10.9733 31.9513 11.148C31.9983 11.3227 32.0115 11.5066 31.9899 11.6874ZM10.5186 10.2377H21.4814L16 3.22091L10.5186 10.2377ZM29.5514 12.7979H2.44864L4.42863 29.4397H27.5714L29.5514 12.7979Z" fill="#790000"/>
</svg>
