<svg width="22" height="22" viewBox="0 0 22 22" fill="none" xmlns="http://www.w3.org/2000/svg">
<path d="M17.0085 10.204C15.7298 10.2118 14.5013 10.8165 13.571 11.896H9.84484C9.65617 11.8924 9.47327 11.8154 9.32235 11.676L6.87489 9.30731V4.23147H9.62484V2.11654H5.63741C5.50045 1.89281 5.34869 1.68343 5.18366 1.49052C4.88054 1.12384 4.52046 0.836113 4.12493 0.644542C3.68734 0.43274 3.2201 0.329247 2.74995 0.339992V4.23147H5.15616V9.57802C5.15718 9.76923 5.11428 9.95691 5.03242 10.1194L3.0112 14.2647C2.21481 14.3423 1.46898 14.7756 0.914309 15.4831C0.359636 16.1906 0.0344325 17.1233 0 18.1054C0.0392976 19.1812 0.422794 20.1941 1.06679 20.9231C1.71079 21.6522 2.56301 22.0382 3.43744 21.9969C4.31188 22.0382 5.16409 21.6522 5.80809 20.9231C6.45209 20.1941 6.83559 19.1812 6.87489 18.1054H21.9996V16.0751C21.9872 15.2856 21.8479 14.5069 21.59 13.7839C21.332 13.0608 20.9604 12.4077 20.4965 11.862C20.0326 11.3164 19.4856 10.889 18.887 10.6044C18.2884 10.3199 17.65 10.1838 17.0085 10.204ZM17.0085 12.319C17.4243 12.2986 17.8392 12.3799 18.2294 12.5581C18.6195 12.7363 18.977 13.0079 19.2813 13.3572C19.5856 13.7064 19.8307 14.1265 20.0022 14.593C20.1738 15.0595 20.2685 15.5633 20.2809 16.0751H13.7498C13.7622 15.5647 13.8565 15.0624 14.0272 14.5971C14.1979 14.1317 14.4417 13.7124 14.7445 13.3634C15.0473 13.0143 15.4032 12.7423 15.7918 12.5631C16.1803 12.3839 16.5938 12.3009 17.0085 12.319ZM3.43744 19.882C3.01853 19.9243 2.60298 19.7614 2.28113 19.4287C1.95929 19.096 1.75717 18.6205 1.71872 18.1054C1.77371 17.6057 1.9829 17.1512 2.3029 16.8362C2.62291 16.5212 3.02918 16.3698 3.43744 16.4135C3.84571 16.3698 4.25198 16.5212 4.57198 16.8362C4.89199 17.1512 5.10118 17.6057 5.15616 18.1054C5.11771 18.6205 4.9156 19.096 4.59375 19.4287C4.27191 19.7614 3.85636 19.9243 3.43744 19.882ZM6.31115 16.0751C5.94415 15.4455 5.43843 14.9582 4.85367 14.6708L6.35239 11.5068L8.24986 13.3003C8.6983 13.7142 9.24304 13.9396 9.80359 13.9432H12.3748C12.1443 14.618 12.0274 15.3432 12.0311 16.0751H6.31115Z" fill="#790000"/>
</svg>
