<svg width="49" height="36" viewBox="0 0 49 36" fill="none" xmlns="http://www.w3.org/2000/svg">
<path d="M45.5 0.5H3.5C2.57174 0.5 1.6815 0.868749 1.02513 1.52513C0.368749 2.1815 0 3.07174 0 4V32C0 32.9283 0.368749 33.8185 1.02513 34.4749C1.6815 35.1312 2.57174 35.5 3.5 35.5H45.5C46.4283 35.5 47.3185 35.1312 47.9749 34.4749C48.6312 33.8185 49 32.9283 49 32V4C49 3.07174 48.6312 2.1815 47.9749 1.52513C47.3185 0.868749 46.4283 0.5 45.5 0.5ZM45.5 4V9.25H3.5V4H45.5ZM45.5 32H3.5V12.75H45.5V32ZM42 26.75C42 27.2141 41.8156 27.6593 41.4874 27.9874C41.1592 28.3156 40.7141 28.5 40.25 28.5H33.25C32.7859 28.5 32.3408 28.3156 32.0126 27.9874C31.6844 27.6593 31.5 27.2141 31.5 26.75C31.5 26.2859 31.6844 25.8407 32.0126 25.5126C32.3408 25.1844 32.7859 25 33.25 25H40.25C40.7141 25 41.1592 25.1844 41.4874 25.5126C41.8156 25.8407 42 26.2859 42 26.75ZM28 26.75C28 27.2141 27.8156 27.6593 27.4874 27.9874C27.1593 28.3156 26.7141 28.5 26.25 28.5H22.75C22.2859 28.5 21.8408 28.3156 21.5126 27.9874C21.1844 27.6593 21 27.2141 21 26.75C21 26.2859 21.1844 25.8407 21.5126 25.5126C21.8408 25.1844 22.2859 25 22.75 25H26.25C26.7141 25 27.1593 25.1844 27.4874 25.5126C27.8156 25.8407 28 26.2859 28 26.75Z" fill="#790000"/>
</svg>
