<svg width="22" height="22" viewBox="0 0 22 22" fill="none" xmlns="http://www.w3.org/2000/svg">
<path d="M21.7996 20.8258L15.1416 14.1027C16.3826 12.611 17.1305 10.6919 17.1305 8.59646C17.1305 3.84881 13.2956 0 8.56524 0C3.83483 0 0 3.84881 0 8.59646C0 13.3441 3.83483 17.1929 8.56524 17.1929C10.7144 17.1929 12.6776 16.3965 14.1816 15.0837L20.8303 21.7986C21.0979 22.0671 21.532 22.0671 21.7996 21.7986C22.0668 21.53 22.0668 21.0947 21.7996 20.8258H21.7996ZM8.56524 15.8288C4.58548 15.8288 1.35913 12.5907 1.35913 8.59646C1.35913 4.6022 4.58548 1.36409 8.56524 1.36409C12.545 1.36409 15.7713 4.6022 15.7713 8.59646C15.7713 12.5907 12.545 15.8288 8.56524 15.8288Z" fill="#790000"/>
</svg>
