<svg width="51" height="61" viewBox="0 0 51 61" fill="none" xmlns="http://www.w3.org/2000/svg">
<path d="M8.38776 26.7116V34.4269M8.38776 26.7116L1 13.8285M8.38776 26.7116L14.6018 30.5844M35.8568 17.7559L29.6427 13.8816M35.8568 43.4174L29.6427 39.5431V47.2599M1 13.8285V47.31L21.7485 34.8439M1 13.8285L22.255 26.7085M22.255 35.1441V60.1384M22.255 60.1384L50 43.469M22.255 60.1384L29.6442 47.2584L35.8583 43.4159L50 43.469M50 43.469L28.7329 30.5859M28.7329 30.5859L50 17.809M28.7329 30.5859L22.255 26.7085M28.7329 30.5859L29.6442 21.5984M50 17.809L22.255 1M50 17.809L35.8583 17.7544L29.6442 21.5984M22.255 1L29.6442 13.8785M22.255 1V26.7085M14.6018 30.5844L8.38776 34.4254L1 47.3069M14.6018 30.5844L29.6442 39.5416M29.6442 13.8801V21.5984M29.6442 21.5984L22.255 26.707" stroke="#790000" stroke-width="1.51637" stroke-linecap="round" stroke-linejoin="round"/>
</svg>
