<svg width="30" height="29" viewBox="0 0 30 29" fill="none" xmlns="http://www.w3.org/2000/svg">
<path d="M22.9713 28.9999C22.5711 29.0007 22.1799 28.8791 21.8487 28.6511L15.0951 24.0622C15.0618 24.0389 15.0223 24.0265 14.9819 24.0265C14.9415 24.0265 14.902 24.0389 14.8687 24.0622L8.11505 28.6511C7.77591 28.8807 7.37591 29.0003 6.96817 28.9939C6.56042 28.9876 6.16423 28.8556 5.8322 28.6156C5.50016 28.3756 5.248 28.0389 5.1092 27.6502C4.9704 27.2615 4.95152 26.8391 5.05507 26.4393L7.2731 18.5096C7.28359 18.4697 7.28232 18.4276 7.26945 18.3885C7.25657 18.3493 7.23267 18.3149 7.20068 18.2893L0.809126 13.1956C0.472654 12.9415 0.223066 12.587 0.0953589 12.1818C-0.0323482 11.7767 -0.0317704 11.3411 0.0970113 10.9363C0.225793 10.5315 0.476321 10.1777 0.813466 9.92449C1.15061 9.67129 1.55747 9.53142 1.97699 9.52447L10.1249 9.21242C10.1649 9.20962 10.2033 9.19513 10.2355 9.17071C10.2676 9.14628 10.292 9.11296 10.3059 9.07475L13.1124 1.33781C13.2539 0.945588 13.5108 0.606904 13.8484 0.367617C14.1861 0.128331 14.5881 0 15 0C15.4119 0 15.8139 0.128331 16.1516 0.367617C16.4892 0.606904 16.7461 0.945588 16.8876 1.33781L19.6941 9.07475C19.708 9.11296 19.7324 9.14628 19.7645 9.17071C19.7967 9.19513 19.8351 9.20962 19.8751 9.21242L28.023 9.52447C28.4425 9.53142 28.8494 9.67129 29.1865 9.92449C29.5237 10.1777 29.7742 10.5315 29.903 10.9363C30.0318 11.3411 30.0323 11.7767 29.9046 12.1818C29.7769 12.587 29.5273 12.9415 29.1909 13.1956L22.7993 18.2893C22.7664 18.314 22.7417 18.3484 22.7288 18.3879C22.7158 18.4273 22.7151 18.4698 22.7269 18.5096L24.9449 26.4393C25.0228 26.7434 25.0305 27.0617 24.9675 27.3694C24.9045 27.677 24.7725 27.9659 24.5816 28.2135C24.3908 28.4611 24.1462 28.6608 23.867 28.7972C23.5878 28.9336 23.2813 29.0029 22.9713 28.9999ZM14.9864 22.1899C15.3874 22.2018 15.7755 22.3361 16.1 22.5754L22.8536 27.1643C22.8879 27.1907 22.9296 27.2051 22.9726 27.2055C23.0156 27.2058 23.0575 27.1921 23.0921 27.1663C23.1268 27.1404 23.1522 27.1039 23.1647 27.0622C23.1772 27.0205 23.1761 26.9759 23.1614 26.9349L20.9434 19.0052C20.8343 18.6162 20.8423 18.203 20.9665 17.8187C21.0908 17.4344 21.3255 17.0965 21.6405 16.8484L28.0321 11.7547C28.0669 11.7299 28.093 11.6944 28.1065 11.6534C28.12 11.6124 28.1202 11.5681 28.107 11.5271C28.0938 11.486 28.068 11.4503 28.0333 11.4252C27.9987 11.4001 27.957 11.3869 27.9144 11.3876L19.7665 11.0755C19.3675 11.0598 18.9823 10.9239 18.6598 10.6852C18.3373 10.4466 18.0922 10.116 17.9559 9.73556L15.1494 1.99862C15.1367 1.95754 15.1115 1.92163 15.0773 1.89614C15.0431 1.87064 15.0017 1.85689 14.9593 1.85689C14.9168 1.85689 14.8755 1.87064 14.8413 1.89614C14.8071 1.92163 14.7818 1.95754 14.7691 1.99862L11.9898 9.72638C11.8534 10.1068 11.6084 10.4374 11.2859 10.6761C10.9634 10.9147 10.5781 11.0506 10.1792 11.0664L2.03131 11.3784C1.9887 11.3777 1.94701 11.3909 1.91233 11.416C1.87766 11.4411 1.85184 11.4768 1.83868 11.5179C1.82551 11.559 1.82568 11.6032 1.83917 11.6442C1.85266 11.6852 1.87875 11.7207 1.91362 11.7455L8.31422 16.8484C8.62831 17.0973 8.8623 17.4352 8.98643 17.8193C9.11056 18.2034 9.11922 18.6162 9.01132 19.0052L6.80234 26.9349C6.78915 26.9746 6.78909 27.0176 6.80216 27.0573C6.81523 27.0971 6.84072 27.1314 6.87476 27.1552C6.90756 27.1836 6.9493 27.1992 6.99245 27.1992C7.03561 27.1992 7.07735 27.1836 7.11015 27.1552L13.8638 22.5662C14.1934 22.3433 14.5811 22.225 14.9774 22.2266L14.9864 22.1899Z" fill="#790000"/>
</svg>
