<svg width="30" height="29" viewBox="0 0 30 29" fill="none" xmlns="http://www.w3.org/2000/svg">
<path d="M29.1911 13.1527C29.5275 12.8989 29.777 12.5448 29.9047 12.1401C30.0323 11.7354 30.0318 11.3004 29.903 10.896C29.7743 10.4917 29.5238 10.1383 29.1868 9.88537C28.8497 9.63247 28.443 9.49276 28.0236 9.48582L19.8782 9.17414C19.8381 9.17134 19.7998 9.15687 19.7676 9.13247C19.7355 9.10807 19.7111 9.07479 19.6972 9.03663L16.8825 1.33625C16.7411 0.944481 16.4842 0.606194 16.1467 0.367187C15.8092 0.128181 15.4073 0 14.9955 0C14.5837 0 14.1818 0.128181 13.8443 0.367187C13.5067 0.606194 13.2499 0.944481 13.1085 1.33625L10.3028 9.06413C10.2889 9.10229 10.2645 9.13558 10.2324 9.15997C10.2002 9.18437 10.1619 9.19884 10.1218 9.20164L1.97639 9.51332C1.557 9.52026 1.15026 9.65997 0.813221 9.91287C0.476177 10.1658 0.225725 10.5192 0.0969821 10.9235C-0.0317608 11.3279 -0.0323384 11.7629 0.0953302 12.1676C0.222999 12.5723 0.472511 12.9264 0.808882 13.1802L7.1985 18.2679C7.23048 18.2934 7.25438 18.3278 7.26725 18.3669C7.28012 18.406 7.28139 18.4481 7.27091 18.4879L5.07165 26.3808C4.95768 26.7828 4.96872 27.2105 5.10327 27.6058C5.23781 28.0012 5.48933 28.3449 5.8236 28.5904C6.15788 28.8358 6.55868 28.9709 6.97148 28.9775C7.38428 28.984 7.78904 28.8615 8.1307 28.6268L14.8823 24.0432C14.9156 24.02 14.9551 24.0075 14.9955 24.0075C15.0359 24.0075 15.0753 24.02 15.1086 24.0432L21.8602 28.6268C22.1973 28.8696 22.6006 29 23.0142 29C23.4278 29 23.8311 28.8696 24.1681 28.6268C24.5025 28.3837 24.7542 28.0416 24.8888 27.6476C25.0233 27.2536 25.0339 26.8271 24.9193 26.4267L22.7019 18.5063C22.6902 18.4665 22.6908 18.424 22.7038 18.3847C22.7168 18.3453 22.7414 18.3109 22.7743 18.2863L29.1911 13.1527ZM20.9552 18.9555L23.1726 26.8759C23.1906 26.9182 23.1938 26.9655 23.1816 27.0099C23.1694 27.0543 23.1426 27.0932 23.1055 27.12C23.0685 27.1468 23.0235 27.1599 22.9781 27.1572C22.9326 27.1545 22.8895 27.1361 22.8558 27.105L16.1042 22.5215C15.7731 22.2938 15.382 22.1724 14.9819 22.1731V1.84044C15.0245 1.83694 15.067 1.84882 15.1018 1.87399C15.1365 1.89916 15.1614 1.93598 15.172 1.97795L17.9867 9.6875C18.123 10.0675 18.368 10.3977 18.6904 10.6361C19.0127 10.8744 19.3979 11.0102 19.7967 11.0259L27.9422 11.3376C27.9847 11.3369 28.0264 11.35 28.0611 11.3751C28.0958 11.4002 28.1216 11.4359 28.1347 11.4769C28.1479 11.5179 28.1477 11.5622 28.1342 11.6031C28.1208 11.644 28.0947 11.6795 28.0598 11.7043L21.6702 16.792C21.3503 17.0382 21.111 17.3762 20.9835 17.7621C20.8559 18.148 20.8461 18.5638 20.9552 18.9555Z" fill="#790000"/>
</svg>
