<svg width="30" height="29" viewBox="0 0 30 29" fill="none" xmlns="http://www.w3.org/2000/svg">
<path fill-rule="evenodd" clip-rule="evenodd" d="M16.1883 0.769402C16.0836 0.539701 15.916 0.345166 15.7054 0.208815C15.4948 0.0724627 15.25 0 15 0C14.75 0 14.5052 0.0724627 14.2946 0.208815C14.084 0.345166 13.9164 0.539701 13.8117 0.769402L10.0557 9.00595L1.15524 10.0746C0.906919 10.1042 0.672191 10.2053 0.478841 10.3657C0.285491 10.5262 0.141613 10.7393 0.0642355 10.9799C-0.013142 11.2205 -0.02078 11.4785 0.0422255 11.7233C0.105231 11.9682 0.236242 12.1896 0.419754 12.3615L7.00252 18.519L5.25541 27.4177C5.20688 27.6657 5.22956 27.9227 5.32077 28.1581C5.41198 28.3935 5.5679 28.5976 5.7701 28.7462C5.9723 28.8948 6.21233 28.9817 6.4618 28.9967C6.71127 29.0116 6.95976 28.954 7.17789 28.8306L15 24.3998L22.8221 28.8306C23.0404 28.9545 23.2892 29.0125 23.539 28.9977C23.7889 28.9829 24.0293 28.896 24.2318 28.7471C24.4343 28.5983 24.5903 28.3938 24.6815 28.1579C24.7726 27.922 24.7949 27.6647 24.7459 27.4163L22.9988 18.5203L29.5802 12.3615C29.7638 12.1896 29.8948 11.9682 29.9578 11.7233C30.0208 11.4785 30.0131 11.2205 29.9358 10.9799C29.8584 10.7393 29.7145 10.5262 29.5212 10.3657C29.3278 10.2053 29.0931 10.1042 28.8448 10.0746L19.943 9.00462L16.1883 0.769402Z" fill="#790000"/>
</svg>
