<svg width="204" height="204" viewBox="0 0 204 204" fill="none" xmlns="http://www.w3.org/2000/svg">
<path d="M63.75 191.25C70.7916 191.25 76.5 185.542 76.5 178.5C76.5 171.458 70.7916 165.75 63.75 165.75C56.7084 165.75 51 171.458 51 178.5C51 185.542 56.7084 191.25 63.75 191.25Z" fill="#790000"/>
<path d="M153 191.25C160.042 191.25 165.75 185.542 165.75 178.5C165.75 171.458 160.042 165.75 153 165.75C145.958 165.75 140.25 171.458 140.25 178.5C140.25 185.542 145.958 191.25 153 191.25Z" fill="#790000"/>
<path d="M31.7475 17.8755C31.4587 16.4309 30.6786 15.1308 29.5396 14.1964C28.4006 13.262 26.9732 12.7509 25.5 12.75H0V25.5H20.2725L44.7525 147.874C45.0412 149.319 45.8214 150.619 46.9604 151.554C48.0994 152.488 49.5268 152.999 51 153H165.75V140.25H56.2275L51.1275 114.75H165.75C167.2 114.75 168.607 114.255 169.738 113.348C170.869 112.44 171.657 111.174 171.972 109.758L186.43 44.625H173.381L160.637 102H48.5775L31.7475 17.8755Z" fill="#790000"/>
<path d="M108 13C87.0126 13 70 30.0139 70 51C70 71.9861 87.0139 89 108 89C128.986 89 146 71.9861 146 51C146 30.0139 128.986 13 108 13ZM99.165 73.8L99.1397 73.7747L99.1181 73.8L81.4 55.56L90.3034 46.4856L99.1409 55.5853L125.741 28.2013L134.6 37.3187L99.165 73.8Z" fill="#790000"/>
</svg>
